<?xml version="1.0" encoding="UTF-8"?>
<svg xmlns="http://www.w3.org/2000/svg" xmlns:xlink="http://www.w3.org/1999/xlink" width="3472.7" height="1623.7" viewBox="0 0 3472.7 1623.7">
<defs>
<clipPath id="clip-0">
<path clip-rule="nonzero" d="M 0 0 L 3472.699219 0 L 3472.699219 1623.699219 L 0 1623.699219 Z M 0 0 "/>
</clipPath>
<clipPath id="clip-1">
<path clip-rule="evenodd" d="M 3352.398438 992.101562 L 120.800781 992.101562 C 98.101562 992.101562 79.699219 973.699219 79.699219 951.101562 C 79.699219 928.5 98.101562 910.101562 120.800781 910.101562 L 316.199219 910.101562 C 316.398438 910.101562 316.699219 910.199219 316.898438 910.199219 C 317.101562 910.199219 317.398438 910.101562 317.601562 910.101562 L 884.101562 910.101562 C 884.300781 910.101562 884.601562 910.199219 884.800781 910.199219 C 885 910.199219 885.300781 910.101562 885.5 910.101562 L 1451.898438 910.101562 C 1452.101562 910.101562 1452.398438 910.199219 1452.601562 910.199219 C 1452.800781 910.199219 1453.101562 910.101562 1453.300781 910.101562 L 2019.800781 910.101562 C 2020 910.101562 2020.300781 910.199219 2020.5 910.199219 C 2020.699219 910.199219 2021 910.101562 2021.199219 910.101562 L 2587.699219 910.101562 C 2587.898438 910.101562 2588.199219 910.199219 2588.398438 910.199219 C 2588.601562 910.199219 2588.898438 910.101562 2589.101562 910.101562 L 3155.601562 910.101562 C 3155.800781 910.101562 3156.101562 910.199219 3156.300781 910.199219 C 3156.5 910.199219 3156.800781 910.101562 3157 910.101562 L 3352.101562 910.101562 C 3374.800781 910.101562 3393.199219 928.5 3393.199219 951.101562 C 3393.398438 973.601562 3375 992.101562 3352.398438 992.101562 Z M 3152.699219 1538.800781 C 3152.101562 1541.699219 3149.601562 1544 3146.5 1544 L 2914.601562 1544 L 2875.199219 1334.101562 C 2862 1263 2799.800781 1211.398438 2727.398438 1211.398438 C 2655.101562 1211.398438 2592.898438 1263 2579.601562 1334.101562 L 2540.199219 1544 L 2254.101562 1544 L 2214.800781 1334.101562 C 2201.5 1263 2139.300781 1211.398438 2066.898438 1211.398438 C 1994.601562 1211.398438 1932.398438 1263 1919.101562 1334.101562 L 1879.800781 1544 L 1593.5 1544 L 1554.199219 1334.101562 C 1540.898438 1263 1478.800781 1211.398438 1406.398438 1211.398438 C 1334.101562 1211.398438 1271.898438 1263 1258.601562 1334.101562 L 1219.300781 1544 L 933.101562 1544 L 893.800781 1334.101562 C 880.601562 1263 818.398438 1211.398438 746 1211.398438 C 673.699219 1211.398438 611.5 1263 598.199219 1334.101562 L 558.898438 1544 L 326.898438 1544 C 323.800781 1544 321.199219 1541.800781 320.699219 1538.800781 L 240.199219 1071.699219 L 3233.101562 1071.699219 Z M 597.300781 450.101562 C 598.601562 450 599.699219 450 601 450 C 602.300781 450 603.398438 450 605.199219 450.101562 C 729.699219 453.898438 832.5 621 844.101562 830.5 L 357.898438 830.5 C 369.398438 621.101562 472.199219 453.898438 597.300781 450.101562 Z M 884.601562 79.5 C 992.398438 79.5 1090.898438 204.199219 1122.898438 375.5 C 1019.398438 397.601562 932.601562 493.300781 884.898438 628 C 837.800781 495.199219 752.800781 400.101562 651.300781 376.398438 C 682.898438 204.601562 779.300781 79.5 884.601562 79.5 Z M 1452.5 79.5 C 1560.5 79.5 1658.898438 204.199219 1690.898438 375.5 C 1587.300781 397.601562 1500.601562 493.300781 1452.699219 628 C 1404.800781 493 1317.800781 397 1214.101562 375.300781 C 1246.199219 204.101562 1344.601562 79.5 1452.5 79.5 Z M 2020.601562 79.5 C 2128.601562 79.5 2227 204.199219 2259.101562 375.398438 C 2155.5 397.398438 2068.699219 493.199219 2020.800781 627.898438 C 1972.898438 492.800781 1886 396.898438 1782.300781 375.300781 C 1814.300781 204.101562 1912.699219 79.5 2020.601562 79.5 Z M 2588.699219 79.5 C 2696.601562 79.5 2795 204.199219 2827.101562 375.398438 C 2723.398438 397.398438 2636.699219 493.199219 2588.800781 627.898438 C 2540.898438 493 2454 397 2350.398438 375.300781 C 2382.5 204.101562 2480.800781 79.5 2588.699219 79.5 Z M 2301.101562 450.101562 C 2302.398438 450 2303.601562 450 2304.800781 450 C 2306.101562 450 2307.199219 450 2309 450.101562 C 2433.5 453.898438 2536.199219 621 2547.800781 830.5 L 2061.601562 830.5 C 2073.300781 621.101562 2176 453.898438 2301.101562 450.101562 Z M 1733 450.101562 C 1734.300781 450 1735.5 450 1736.800781 450 C 1737.898438 450 1739.101562 450 1740.800781 450.101562 C 1865.398438 453.699219 1968.101562 620.898438 1979.800781 830.5 L 1493.601562 830.5 C 1505.300781 621.101562 1608.101562 453.898438 1733 450.101562 Z M 1165.101562 450.101562 C 1166.398438 450 1167.601562 450 1168.800781 450 C 1170 450 1171.199219 450 1173 450.101562 C 1297.5 453.898438 1400.199219 621 1411.800781 830.5 L 925.699219 830.5 C 937.398438 621.101562 1040.101562 453.898438 1165.101562 450.101562 Z M 3115.800781 830.5 L 2629.601562 830.5 C 2641.300781 621 2744.101562 453.800781 2869.101562 450.101562 C 2870.398438 450 2871.5 450 2872.699219 450 C 2874 450 2875.199219 450 2877 450.101562 C 3001.5 453.898438 3104.101562 621.101562 3115.800781 830.5 Z M 3352.398438 830.5 L 3195.300781 830.5 C 3183.300781 588.800781 3062.898438 397.898438 2907.300781 373.398438 C 2870.800781 155.199219 2740.101562 0 2588.601562 0 C 2468.898438 0 2362.199219 96.800781 2304.5 245.101562 C 2247 96.898438 2140.101562 0 2020.398438 0 C 1900.699219 0 1794 96.800781 1736.5 245.101562 C 1679 96.898438 1572.101562 0 1452.398438 0 C 1332.699219 0 1225.898438 96.800781 1168.300781 245.101562 C 1110.800781 96.898438 1004 0 884.398438 0 C 805.300781 0 729.5 43.398438 671 122.199219 C 622.300781 187.898438 587.300781 275.898438 571 372.800781 C 412.898438 394.398438 290.101562 586.5 278 830.601562 L 120.5 830.601562 C 54 830.601562 0 884.699219 0 951.199219 C 0 1017.699219 54.101562 1071.800781 120.5 1071.800781 L 159.398438 1071.800781 L 242.101562 1552.5 C 249.199219 1593.699219 284.800781 1623.699219 326.601562 1623.699219 L 591.5 1623.699219 C 610.699219 1623.699219 627.101562 1610.101562 630.699219 1591.300781 L 676 1348.800781 C 682.300781 1315.300781 711.601562 1290.898438 745.699219 1290.898438 C 779.800781 1290.898438 809.101562 1315.199219 815.398438 1348.800781 L 860.699219 1591.300781 C 864.199219 1610.101562 880.601562 1623.699219 899.800781 1623.699219 L 1252.101562 1623.699219 C 1271.199219 1623.699219 1287.699219 1610.101562 1291.199219 1591.300781 L 1336.601562 1348.800781 C 1342.800781 1315.300781 1372.199219 1290.898438 1406.199219 1290.898438 C 1440.300781 1290.898438 1469.601562 1315.199219 1475.898438 1348.800781 L 1521.300781 1591.300781 C 1524.800781 1610.101562 1541.300781 1623.699219 1560.300781 1623.699219 L 1912.601562 1623.699219 C 1931.699219 1623.699219 1948.199219 1610.101562 1951.699219 1591.300781 L 1997 1348.800781 C 2003.300781 1315.300781 2032.601562 1290.898438 2066.699219 1290.898438 C 2100.800781 1290.898438 2130.101562 1315.199219 2136.398438 1348.800781 L 2181.800781 1591.300781 C 2185.300781 1610.101562 2201.800781 1623.699219 2220.800781 1623.699219 L 2573.101562 1623.699219 C 2592.199219 1623.699219 2608.699219 1610.101562 2612.101562 1591.300781 L 2657.398438 1348.800781 C 2663.699219 1315.300781 2693 1290.898438 2727.101562 1290.898438 C 2761.199219 1290.898438 2790.5 1315.199219 2796.800781 1348.800781 L 2842.101562 1591.300781 C 2845.601562 1610.101562 2862.101562 1623.699219 2881.101562 1623.699219 L 3146.101562 1623.699219 C 3188 1623.699219 3223.601562 1593.800781 3230.699219 1552.5 L 3313.398438 1071.800781 L 3352 1071.800781 C 3418.398438 1071.800781 3472.5 1017.699219 3472.699219 951.199219 C 3473 884.601562 3418.898438 830.5 3352.398438 830.5 "/>
</clipPath>
<linearGradient id="linear-pattern-0" gradientUnits="userSpaceOnUse" x1="-0.195932" y1="0" x2="1.072397" y2="0" gradientTransform="matrix(2009.1, 2009.1, -2009.1, 2009.1, 732.473, 54.82)">
<stop offset="0" stop-color="rgb(83.769226%, 15.103149%, 17.62085%)" stop-opacity="1"/>
<stop offset="0.125" stop-color="rgb(83.769226%, 15.103149%, 17.62085%)" stop-opacity="1"/>
<stop offset="0.15625" stop-color="rgb(83.770752%, 15.151978%, 17.593384%)" stop-opacity="1"/>
<stop offset="0.160156" stop-color="rgb(83.784485%, 15.41748%, 17.446899%)" stop-opacity="1"/>
<stop offset="0.164062" stop-color="rgb(83.795166%, 15.632629%, 17.324829%)" stop-opacity="1"/>
<stop offset="0.167969" stop-color="rgb(83.804321%, 15.789795%, 17.208862%)" stop-opacity="1"/>
<stop offset="0.171875" stop-color="rgb(83.811951%, 15.943909%, 17.09137%)" stop-opacity="1"/>
<stop offset="0.175781" stop-color="rgb(83.822632%, 16.064453%, 16.978455%)" stop-opacity="1"/>
<stop offset="0.179688" stop-color="rgb(83.833313%, 16.186523%, 16.864014%)" stop-opacity="1"/>
<stop offset="0.183594" stop-color="rgb(84.024048%, 16.412354%, 16.749573%)" stop-opacity="1"/>
<stop offset="0.1875" stop-color="rgb(84.214783%, 16.638184%, 16.633606%)" stop-opacity="1"/>
<stop offset="0.191406" stop-color="rgb(84.327698%, 16.819763%, 16.517639%)" stop-opacity="1"/>
<stop offset="0.195312" stop-color="rgb(84.439087%, 16.999817%, 16.401672%)" stop-opacity="1"/>
<stop offset="0.199219" stop-color="rgb(84.44519%, 17.118835%, 16.28418%)" stop-opacity="1"/>
<stop offset="0.203125" stop-color="rgb(84.45282%, 17.237854%, 16.166687%)" stop-opacity="1"/>
<stop offset="0.207031" stop-color="rgb(84.532166%, 17.347717%, 16.040039%)" stop-opacity="1"/>
<stop offset="0.210938" stop-color="rgb(84.613037%, 17.459106%, 15.913391%)" stop-opacity="1"/>
<stop offset="0.214844" stop-color="rgb(84.689331%, 17.590332%, 15.794373%)" stop-opacity="1"/>
<stop offset="0.21875" stop-color="rgb(84.767151%, 17.720032%, 15.67688%)" stop-opacity="1"/>
<stop offset="0.222656" stop-color="rgb(84.777832%, 17.9245%, 15.600586%)" stop-opacity="1"/>
<stop offset="0.226562" stop-color="rgb(84.788513%, 18.128967%, 15.522766%)" stop-opacity="1"/>
<stop offset="0.230469" stop-color="rgb(84.8526%, 18.275452%, 15.411377%)" stop-opacity="1"/>
<stop offset="0.234375" stop-color="rgb(84.915161%, 18.421936%, 15.299988%)" stop-opacity="1"/>
<stop offset="0.238281" stop-color="rgb(85.009766%, 18.533325%, 15.168762%)" stop-opacity="1"/>
<stop offset="0.242187" stop-color="rgb(85.105896%, 18.644714%, 15.036011%)" stop-opacity="1"/>
<stop offset="0.246094" stop-color="rgb(85.116577%, 18.850708%, 14.956665%)" stop-opacity="1"/>
<stop offset="0.25" stop-color="rgb(85.127258%, 19.05365%, 14.877319%)" stop-opacity="1"/>
<stop offset="0.257812" stop-color="rgb(85.211182%, 19.226074%, 14.805603%)" stop-opacity="1"/>
<stop offset="0.265625" stop-color="rgb(85.484314%, 19.519043%, 14.671326%)" stop-opacity="1"/>
<stop offset="0.269531" stop-color="rgb(85.787964%, 19.825745%, 14.520264%)" stop-opacity="1"/>
<stop offset="0.273438" stop-color="rgb(85.906982%, 20.00885%, 14.431763%)" stop-opacity="1"/>
<stop offset="0.277344" stop-color="rgb(85.98938%, 20.185852%, 14.355469%)" stop-opacity="1"/>
<stop offset="0.28125" stop-color="rgb(86.070251%, 20.36438%, 14.276123%)" stop-opacity="1"/>
<stop offset="0.289062" stop-color="rgb(86.076355%, 20.462036%, 14.26239%)" stop-opacity="1"/>
<stop offset="0.296875" stop-color="rgb(86.143494%, 20.658875%, 14.193726%)" stop-opacity="1"/>
<stop offset="0.304687" stop-color="rgb(86.302185%, 20.860291%, 14.056396%)" stop-opacity="1"/>
<stop offset="0.3125" stop-color="rgb(86.58905%, 21.076965%, 13.963318%)" stop-opacity="1"/>
<stop offset="0.320312" stop-color="rgb(86.933899%, 21.343994%, 13.909912%)" stop-opacity="1"/>
<stop offset="0.324219" stop-color="rgb(87.191772%, 21.691895%, 13.764954%)" stop-opacity="1"/>
<stop offset="0.328125" stop-color="rgb(87.295532%, 21.893311%, 13.665771%)" stop-opacity="1"/>
<stop offset="0.332031" stop-color="rgb(87.321472%, 22.029114%, 13.542175%)" stop-opacity="1"/>
<stop offset="0.335938" stop-color="rgb(87.347412%, 22.163391%, 13.417053%)" stop-opacity="1"/>
<stop offset="0.339844" stop-color="rgb(87.374878%, 22.297668%, 13.293457%)" stop-opacity="1"/>
<stop offset="0.34375" stop-color="rgb(87.400818%, 22.431946%, 13.168335%)" stop-opacity="1"/>
<stop offset="0.347656" stop-color="rgb(87.506104%, 22.633362%, 13.066101%)" stop-opacity="1"/>
<stop offset="0.351562" stop-color="rgb(87.609863%, 22.834778%, 12.963867%)" stop-opacity="1"/>
<stop offset="0.359375" stop-color="rgb(87.65564%, 22.973633%, 12.913513%)" stop-opacity="1"/>
<stop offset="0.367187" stop-color="rgb(87.70752%, 23.213196%, 12.8479%)" stop-opacity="1"/>
<stop offset="0.371094" stop-color="rgb(87.817383%, 23.501587%, 12.788391%)" stop-opacity="1"/>
<stop offset="0.375" stop-color="rgb(87.921143%, 23.693848%, 12.744141%)" stop-opacity="1"/>
<stop offset="0.378906" stop-color="rgb(87.989807%, 23.886108%, 12.704468%)" stop-opacity="1"/>
<stop offset="0.382812" stop-color="rgb(88.056946%, 24.079895%, 12.666321%)" stop-opacity="1"/>
<stop offset="0.386719" stop-color="rgb(88.070679%, 24.278259%, 12.635803%)" stop-opacity="1"/>
<stop offset="0.390625" stop-color="rgb(88.082886%, 24.475098%, 12.605286%)" stop-opacity="1"/>
<stop offset="0.398438" stop-color="rgb(88.088989%, 24.594116%, 12.586975%)" stop-opacity="1"/>
<stop offset="0.40625" stop-color="rgb(88.122559%, 24.830627%, 12.547302%)" stop-opacity="1"/>
<stop offset="0.410156" stop-color="rgb(88.252258%, 25.140381%, 12.481689%)" stop-opacity="1"/>
<stop offset="0.414062" stop-color="rgb(88.357544%, 25.332642%, 12.437439%)" stop-opacity="1"/>
<stop offset="0.417969" stop-color="rgb(88.465881%, 25.546265%, 12.409973%)" stop-opacity="1"/>
<stop offset="0.421875" stop-color="rgb(88.571167%, 25.759888%, 12.382507%)" stop-opacity="1"/>
<stop offset="0.425781" stop-color="rgb(88.677979%, 25.987244%, 12.365723%)" stop-opacity="1"/>
<stop offset="0.429687" stop-color="rgb(88.78479%, 26.2146%, 12.350464%)" stop-opacity="1"/>
<stop offset="0.4375" stop-color="rgb(88.883972%, 26.313782%, 12.319946%)" stop-opacity="1"/>
<stop offset="0.445312" stop-color="rgb(89.051819%, 26.545715%, 12.258911%)" stop-opacity="1"/>
<stop offset="0.449219" stop-color="rgb(89.131165%, 26.878357%, 12.197876%)" stop-opacity="1"/>
<stop offset="0.453125" stop-color="rgb(89.143372%, 27.076721%, 12.167358%)" stop-opacity="1"/>
<stop offset="0.457031" stop-color="rgb(89.230347%, 27.27356%, 12.123108%)" stop-opacity="1"/>
<stop offset="0.460938" stop-color="rgb(89.317322%, 27.470398%, 12.080383%)" stop-opacity="1"/>
<stop offset="0.464844" stop-color="rgb(89.407349%, 27.648926%, 12.039185%)" stop-opacity="1"/>
<stop offset="0.46875" stop-color="rgb(89.49585%, 27.827454%, 11.997986%)" stop-opacity="1"/>
<stop offset="0.476562" stop-color="rgb(89.501953%, 27.928162%, 11.982727%)" stop-opacity="1"/>
<stop offset="0.484375" stop-color="rgb(89.575195%, 28.182983%, 11.933899%)" stop-opacity="1"/>
<stop offset="0.488281" stop-color="rgb(89.74762%, 28.535461%, 11.853027%)" stop-opacity="1"/>
<stop offset="0.492187" stop-color="rgb(89.854431%, 28.7323%, 11.805725%)" stop-opacity="1"/>
<stop offset="0.5" stop-color="rgb(89.958191%, 28.831482%, 11.773682%)" stop-opacity="1"/>
<stop offset="0.507812" stop-color="rgb(90.127563%, 29.067993%, 11.709595%)" stop-opacity="1"/>
<stop offset="0.511719" stop-color="rgb(90.209961%, 29.403687%, 11.647034%)" stop-opacity="1"/>
<stop offset="0.515625" stop-color="rgb(90.223694%, 29.603577%, 11.61499%)" stop-opacity="1"/>
<stop offset="0.523438" stop-color="rgb(90.379333%, 29.724121%, 11.57074%)" stop-opacity="1"/>
<stop offset="0.527344" stop-color="rgb(90.718079%, 29.959106%, 11.476135%)" stop-opacity="1"/>
<stop offset="0.53125" stop-color="rgb(90.901184%, 30.073547%, 11.427307%)" stop-opacity="1"/>
<stop offset="0.535156" stop-color="rgb(91.011047%, 30.273438%, 11.380005%)" stop-opacity="1"/>
<stop offset="0.539062" stop-color="rgb(91.120911%, 30.473328%, 11.331177%)" stop-opacity="1"/>
<stop offset="0.546875" stop-color="rgb(91.172791%, 30.61676%, 11.300659%)" stop-opacity="1"/>
<stop offset="0.554688" stop-color="rgb(91.230774%, 30.859375%, 11.254883%)" stop-opacity="1"/>
<stop offset="0.5625" stop-color="rgb(91.43219%, 31.095886%, 11.218262%)" stop-opacity="1"/>
<stop offset="0.570312" stop-color="rgb(91.758728%, 31.387329%, 11.175537%)" stop-opacity="1"/>
<stop offset="0.574219" stop-color="rgb(91.906738%, 31.750488%, 11.11908%)" stop-opacity="1"/>
<stop offset="0.578125" stop-color="rgb(91.921997%, 31.951904%, 11.087036%)" stop-opacity="1"/>
<stop offset="0.582031" stop-color="rgb(92.010498%, 32.15332%, 11.039734%)" stop-opacity="1"/>
<stop offset="0.585938" stop-color="rgb(92.098999%, 32.356262%, 10.993958%)" stop-opacity="1"/>
<stop offset="0.589844" stop-color="rgb(92.195129%, 32.559204%, 10.946655%)" stop-opacity="1"/>
<stop offset="0.59375" stop-color="rgb(92.29126%, 32.76062%, 10.900879%)" stop-opacity="1"/>
<stop offset="0.597656" stop-color="rgb(92.306519%, 32.963562%, 10.86731%)" stop-opacity="1"/>
<stop offset="0.601562" stop-color="rgb(92.321777%, 33.164978%, 10.835266%)" stop-opacity="1"/>
<stop offset="0.605469" stop-color="rgb(92.390442%, 33.369446%, 10.791016%)" stop-opacity="1"/>
<stop offset="0.609375" stop-color="rgb(92.460632%, 33.570862%, 10.749817%)" stop-opacity="1"/>
<stop offset="0.613281" stop-color="rgb(92.572021%, 33.77533%, 10.697937%)" stop-opacity="1"/>
<stop offset="0.617188" stop-color="rgb(92.684937%, 33.978271%, 10.647583%)" stop-opacity="1"/>
<stop offset="0.621094" stop-color="rgb(92.704773%, 34.181213%, 10.614014%)" stop-opacity="1"/>
<stop offset="0.625" stop-color="rgb(92.724609%, 34.384155%, 10.580444%)" stop-opacity="1"/>
<stop offset="0.628906" stop-color="rgb(92.774963%, 34.587097%, 10.540771%)" stop-opacity="1"/>
<stop offset="0.632812" stop-color="rgb(92.823792%, 34.788513%, 10.501099%)" stop-opacity="1"/>
<stop offset="0.636719" stop-color="rgb(92.938232%, 34.994507%, 10.449219%)" stop-opacity="1"/>
<stop offset="0.640625" stop-color="rgb(93.051147%, 35.198975%, 10.398865%)" stop-opacity="1"/>
<stop offset="0.648438" stop-color="rgb(93.086243%, 35.325623%, 10.372925%)" stop-opacity="1"/>
<stop offset="0.65625" stop-color="rgb(93.144226%, 35.585022%, 10.324097%)" stop-opacity="1"/>
<stop offset="0.660156" stop-color="rgb(93.29071%, 36.024475%, 10.231018%)" stop-opacity="1"/>
<stop offset="0.664062" stop-color="rgb(93.412781%, 36.331177%, 10.162354%)" stop-opacity="1"/>
<stop offset="0.667969" stop-color="rgb(93.47229%, 36.526489%, 10.122681%)" stop-opacity="1"/>
<stop offset="0.671875" stop-color="rgb(93.531799%, 36.721802%, 10.081482%)" stop-opacity="1"/>
<stop offset="0.679688" stop-color="rgb(93.539429%, 36.82251%, 10.064697%)" stop-opacity="1"/>
<stop offset="0.683594" stop-color="rgb(93.569946%, 37.219238%, 10.00061%)" stop-opacity="1"/>
<stop offset="0.6875" stop-color="rgb(93.592834%, 37.513733%, 9.951782%)" stop-opacity="1"/>
<stop offset="0.691406" stop-color="rgb(93.64624%, 37.750244%, 9.906006%)" stop-opacity="1"/>
<stop offset="0.695312" stop-color="rgb(93.699646%, 37.986755%, 9.860229%)" stop-opacity="1"/>
<stop offset="0.703125" stop-color="rgb(93.806458%, 38.092041%, 9.825134%)" stop-opacity="1"/>
<stop offset="0.707031" stop-color="rgb(93.952942%, 38.375854%, 9.754944%)" stop-opacity="1"/>
<stop offset="0.710938" stop-color="rgb(93.991089%, 38.552856%, 9.719849%)" stop-opacity="1"/>
<stop offset="0.714844" stop-color="rgb(94.023132%, 38.75885%, 9.683228%)" stop-opacity="1"/>
<stop offset="0.71875" stop-color="rgb(94.052124%, 38.963318%, 9.648132%)" stop-opacity="1"/>
<stop offset="0.722656" stop-color="rgb(94.168091%, 39.170837%, 9.594727%)" stop-opacity="1"/>
<stop offset="0.726562" stop-color="rgb(94.284058%, 39.378357%, 9.541321%)" stop-opacity="1"/>
<stop offset="0.734375" stop-color="rgb(94.342041%, 39.529419%, 9.507751%)" stop-opacity="1"/>
<stop offset="0.742188" stop-color="rgb(94.407654%, 39.784241%, 9.455872%)" stop-opacity="1"/>
<stop offset="0.746094" stop-color="rgb(94.526672%, 40.087891%, 9.387207%)" stop-opacity="1"/>
<stop offset="0.75" stop-color="rgb(94.63501%, 40.289307%, 9.335327%)" stop-opacity="1"/>
<stop offset="0.753906" stop-color="rgb(94.752502%, 40.498352%, 9.281921%)" stop-opacity="1"/>
<stop offset="0.757812" stop-color="rgb(94.868469%, 40.707397%, 9.228516%)" stop-opacity="1"/>
<stop offset="0.761719" stop-color="rgb(94.985962%, 40.917969%, 9.173584%)" stop-opacity="1"/>
<stop offset="0.765625" stop-color="rgb(95.103455%, 41.12854%, 9.118652%)" stop-opacity="1"/>
<stop offset="0.769531" stop-color="rgb(95.146179%, 41.334534%, 9.078979%)" stop-opacity="1"/>
<stop offset="0.773438" stop-color="rgb(95.19043%, 41.540527%, 9.039307%)" stop-opacity="1"/>
<stop offset="0.777344" stop-color="rgb(95.220947%, 41.748047%, 9.002686%)" stop-opacity="1"/>
<stop offset="0.78125" stop-color="rgb(95.251465%, 41.952515%, 8.964539%)" stop-opacity="1"/>
<stop offset="0.785156" stop-color="rgb(95.368958%, 42.164612%, 8.909607%)" stop-opacity="1"/>
<stop offset="0.789062" stop-color="rgb(95.48645%, 42.375183%, 8.854675%)" stop-opacity="1"/>
<stop offset="0.792969" stop-color="rgb(95.552063%, 42.584229%, 8.810425%)" stop-opacity="1"/>
<stop offset="0.796875" stop-color="rgb(95.61615%, 42.791748%, 8.766174%)" stop-opacity="1"/>
<stop offset="0.800781" stop-color="rgb(95.632935%, 42.997742%, 8.732605%)" stop-opacity="1"/>
<stop offset="0.804688" stop-color="rgb(95.649719%, 43.202209%, 8.69751%)" stop-opacity="1"/>
<stop offset="0.808594" stop-color="rgb(95.66803%, 43.406677%, 8.662415%)" stop-opacity="1"/>
<stop offset="0.8125" stop-color="rgb(95.684814%, 43.612671%, 8.628845%)" stop-opacity="1"/>
<stop offset="0.816406" stop-color="rgb(95.701599%, 43.818665%, 8.59375%)" stop-opacity="1"/>
<stop offset="0.820312" stop-color="rgb(95.718384%, 44.023132%, 8.560181%)" stop-opacity="1"/>
<stop offset="0.824219" stop-color="rgb(95.736694%, 44.229126%, 8.525085%)" stop-opacity="1"/>
<stop offset="0.828125" stop-color="rgb(95.753479%, 44.433594%, 8.48999%)" stop-opacity="1"/>
<stop offset="0.832031" stop-color="rgb(95.77179%, 44.639587%, 8.454895%)" stop-opacity="1"/>
<stop offset="0.835937" stop-color="rgb(95.788574%, 44.845581%, 8.421326%)" stop-opacity="1"/>
<stop offset="0.839844" stop-color="rgb(95.805359%, 45.051575%, 8.38623%)" stop-opacity="1"/>
<stop offset="0.84375" stop-color="rgb(95.822144%, 45.256042%, 8.352661%)" stop-opacity="1"/>
<stop offset="0.847656" stop-color="rgb(95.840454%, 45.462036%, 8.317566%)" stop-opacity="1"/>
<stop offset="0.851562" stop-color="rgb(95.857239%, 45.666504%, 8.282471%)" stop-opacity="1"/>
<stop offset="0.859375" stop-color="rgb(95.870972%, 45.819092%, 8.256531%)" stop-opacity="1"/>
<stop offset="0.867188" stop-color="rgb(95.892334%, 46.073914%, 8.213806%)" stop-opacity="1"/>
<stop offset="0.871094" stop-color="rgb(95.924377%, 46.469116%, 8.148193%)" stop-opacity="1"/>
<stop offset="0.875" stop-color="rgb(95.948792%, 46.759033%, 8.099365%)" stop-opacity="1"/>
<stop offset="0.878906" stop-color="rgb(95.973206%, 47.035217%, 8.052063%)" stop-opacity="1"/>
<stop offset="0.882812" stop-color="rgb(95.996094%, 47.309875%, 8.006287%)" stop-opacity="1"/>
<stop offset="0.886719" stop-color="rgb(96.012878%, 47.515869%, 7.971191%)" stop-opacity="1"/>
<stop offset="0.890625" stop-color="rgb(96.029663%, 47.721863%, 7.937622%)" stop-opacity="1"/>
<stop offset="0.894531" stop-color="rgb(96.054077%, 47.999573%, 7.89032%)" stop-opacity="1"/>
<stop offset="0.898438" stop-color="rgb(96.076965%, 48.278809%, 7.843018%)" stop-opacity="1"/>
<stop offset="0.902344" stop-color="rgb(96.101379%, 48.565674%, 7.795715%)" stop-opacity="1"/>
<stop offset="0.90625" stop-color="rgb(96.125793%, 48.849487%, 7.746887%)" stop-opacity="1"/>
<stop offset="0.914062" stop-color="rgb(96.133423%, 48.951721%, 7.730103%)" stop-opacity="1"/>
<stop offset="0.917969" stop-color="rgb(96.159363%, 49.263%, 7.678223%)" stop-opacity="1"/>
<stop offset="0.921875" stop-color="rgb(96.177673%, 49.47052%, 7.643127%)" stop-opacity="1"/>
<stop offset="0.925781" stop-color="rgb(96.203613%, 49.778748%, 7.591248%)" stop-opacity="1"/>
<stop offset="0.929688" stop-color="rgb(96.229553%, 50.086975%, 7.539368%)" stop-opacity="1"/>
<stop offset="0.9375" stop-color="rgb(96.238708%, 50.20752%, 7.519531%)" stop-opacity="1"/>
<stop offset="1" stop-color="rgb(96.255493%, 50.401306%, 7.485962%)" stop-opacity="1"/>
</linearGradient>
</defs>
<g clip-path="url(#clip-0)">
<g clip-path="url(#clip-1)">
<path fill-rule="nonzero" fill="url(#linear-pattern-0)" d="M 1736.351562 -1736.351562 L -811.851562 811.851562 L 1736.351562 3360.050781 L 4284.550781 811.851562 Z M 1736.351562 -1736.351562 "/>
</g>
</g>
</svg>
