<svg xmlns="http://www.w3.org/2000/svg" viewBox="0 0 64 64" width="64" height="64">
  <title>Арбуз</title>
  <!-- Упрощённая иконка: совместима с SVGR (без CDATA/namespace в стилях) -->
  <path
    d="M32 58C18 58 6 46 6 32c0-8 4-15 10-19l16 45 16-45c6 4 10 11 10 19 0 14-12 26-26 26z"
    fill="#2e7d32"
  />
  <path
    d="M32 54C20 54 10 44 10 32c0-6 2-11 6-15l16 37 16-37c4 4 6 9 6 15 0 12-10 22-22 22z"
    fill="#e53935"
  />
  <ellipse cx="22" cy="30" rx="2" ry="3" fill="#1b1b1b" transform="rotate(-20 22 30)" />
  <ellipse cx="32" cy="36" rx="2" ry="3" fill="#1b1b1b" />
  <ellipse cx="42" cy="30" rx="2" ry="3" fill="#1b1b1b" transform="rotate(20 42 30)" />
  <ellipse cx="28" cy="24" rx="1.5" ry="2.5" fill="#1b1b1b" transform="rotate(10 28 24)" />
  <ellipse cx="38" cy="24" rx="1.5" ry="2.5" fill="#1b1b1b" transform="rotate(-10 38 24)" />
</svg>
