<?xml version="1.0" encoding="UTF-8"?>
<svg xmlns="http://www.w3.org/2000/svg" xmlns:xlink="http://www.w3.org/1999/xlink" width="2400" height="2400" viewBox="0 0 2400 2400">
<rect x="-240" y="-240" width="2880" height="2880" fill="rgb(81.443787%, 93.359375%, 100%)" fill-opacity="1"/>
<path fill-rule="evenodd" fill="rgb(61.521912%, 82.226562%, 93.943787%)" fill-opacity="1" d="M 1181.570312 1474.574219 C 1568.539062 1474.574219 1882.710938 1605.628906 1882.710938 1767.054688 C 1882.710938 1928.476562 1568.539062 2059.535156 1181.570312 2059.535156 C 794.609375 2059.535156 480.441406 1928.476562 480.441406 1767.054688 C 480.441406 1605.628906 794.609375 1474.574219 1181.570312 1474.574219 "/>
<path fill-rule="evenodd" fill="rgb(0%, 57.226562%, 69.921875%)" fill-opacity="1" d="M 921.019531 610.660156 C 921.019531 610.660156 770.167969 724.589844 701.597656 860.671875 C 633.03125 996.761719 1139.160156 1191.21875 1116.75 1023.75 C 1094.328125 856.28125 921.019531 610.660156 921.019531 610.660156 "/>
<path fill-rule="evenodd" fill="rgb(0%, 16.50238%, 25.805664%)" fill-opacity="1" d="M 930.535156 603.949219 C 930.535156 603.949219 1012.929688 717.289062 1073.128906 843.03125 C 1101.988281 903.328125 1125.5 966.53125 1133.359375 1021.53125 C 1136.53125 1044.058594 1131.640625 1061.488281 1121.679688 1074.679688 C 1103.308594 1099 1063.640625 1109.339844 1013.738281 1104.738281 C 971.121094 1100.800781 920.59375 1086.839844 872.101562 1066.46875 C 801.785156 1036.921875 735.898438 993.75 703.28125 949.441406 C 679.601562 917.269531 672.59375 884.160156 688.164062 853.898438 C 714.332031 803.191406 751.628906 755.539062 788.578125 715.621094 C 852.003906 647.109375 914.003906 601.371094 914.003906 601.371094 C 916.519531 599.46875 919.699219 598.671875 922.816406 599.148438 C 925.933594 599.640625 928.71875 601.371094 930.535156 603.949219 Z M 918.410156 627.710938 C 899.230469 643.5 854.167969 682.269531 808.480469 733.679688 C 773.984375 772.5 739.085938 818.550781 715.035156 867.441406 C 704.992188 887.808594 712.421875 909.328125 728.539062 930.550781 C 759.03125 970.710938 820.484375 1008.5 885.167969 1034.988281 C 922.511719 1050.289062 961.003906 1061.71875 995.617188 1067.359375 C 1023.339844 1071.878906 1048.421875 1072.808594 1067.988281 1068.320312 C 1079.460938 1065.691406 1088.851562 1061.429688 1094.589844 1054 C 1099.890625 1047.128906 1101.640625 1037.820312 1100.128906 1025.96875 C 1093.609375 973.691406 1071.851562 913.558594 1045.710938 855.800781 C 999.328125 753.320312 938.648438 658.410156 918.410156 627.710938 "/>
<path fill-rule="evenodd" fill="rgb(0%, 41.40625%, 50.584412%)" fill-opacity="1" d="M 707.089844 850.140625 C 707.089844 850.140625 940.324219 787.160156 979.183594 785.488281 C 1018.039062 783.820312 1125.058594 1062.519531 1125.058594 1062.519531 L 1012.640625 1056.039062 L 752.308594 907.511719 L 707.089844 850.140625 "/>
<path fill-rule="evenodd" fill="rgb(0%, 16.50238%, 25.805664%)" fill-opacity="1" d="M 702.554688 833.339844 C 702.554688 833.339844 796.367188 812.789062 875.171875 795.261719 C 888.074219 792.390625 900.539062 789.460938 912.105469 786.640625 C 925.996094 783.261719 938.550781 779.941406 949.160156 777.480469 C 962.355469 774.429688 972.613281 772.519531 978.605469 772.03125 C 985.785156 771.460938 995.292969 775.519531 1005.308594 785.429688 C 1018.191406 798.179688 1034.238281 822.328125 1050.441406 851.601562 C 1057.398438 864.160156 1064.359375 877.699219 1071.140625 891.640625 C 1108.421875 968.328125 1141.71875 1056.121094 1141.71875 1056.121094 C 1143.898438 1061.78125 1143.050781 1068.160156 1139.46875 1073.058594 C 1135.898438 1077.949219 1130.078125 1080.699219 1124.03125 1080.351562 L 1011.621094 1073.828125 C 1008.871094 1073.671875 1006.199219 1072.878906 1003.808594 1071.519531 L 743.632812 922.710938 C 741.679688 921.589844 739.957031 920.109375 738.5625 918.339844 L 693.421875 860.921875 C 689.804688 856.328125 688.730469 850.21875 690.570312 844.671875 C 692.40625 839.121094 696.910156 834.859375 702.554688 833.339844 Z M 978.476562 798.980469 C 965.605469 799.441406 935.035156 804.121094 899.40625 812.421875 C 881.257812 816.640625 861.984375 822.238281 842.804688 827.660156 C 801.605469 839.308594 761.273438 851.550781 736.445312 859.210938 L 763.929688 893.980469 L 1017.828125 1038.480469 C 1017.828125 1038.480469 1098.070312 1043.089844 1098.070312 1043.089844 C 1084.480469 1009.460938 1059.371094 948.660156 1034.441406 895.160156 C 1017.839844 859.511719 1001.878906 826.941406 988.078125 809.078125 C 985.703125 806.011719 983.535156 803.359375 981.382812 801.390625 C 980.34375 800.441406 978.695312 799.148438 978.476562 798.980469 "/>
<path fill-rule="evenodd" fill="rgb(0%, 67.576599%, 82.421875%)" fill-opacity="1" d="M 927.421875 627.570312 C 927.421875 627.570312 905.816406 527.089844 928.097656 483.761719 C 950.378906 440.429688 1091.480469 450.898438 1188.699219 452.25 C 1285.921875 453.601562 1533.210938 380.441406 1542.480469 474.53125 C 1551.25 563.648438 1527.289062 583.230469 1527.289062 583.230469 L 927.421875 627.570312 "/>
<path fill-rule="evenodd" fill="rgb(0%, 16.50238%, 25.805664%)" fill-opacity="1" d="M 910.40625 631.230469 C 910.40625 631.230469 901.546875 584.859375 902.730469 540.671875 C 903.371094 516.71875 906.972656 493.429688 915.691406 477.390625 C 920.40625 468.699219 928.3125 461.308594 939.464844 455.769531 C 954.070312 448.5 974.652344 443.96875 998.820312 441.601562 C 1054.289062 436.179688 1129.589844 441.328125 1188.828125 443.109375 C 1211.710938 443.550781 1243.109375 440.261719 1277.628906 435.179688 C 1350.238281 424.511719 1436.28125 408.160156 1491.339844 417.089844 C 1529.191406 423.230469 1553.199219 441.128906 1557.089844 473.089844 C 1560.730469 503.941406 1560.378906 526.921875 1558.359375 543.859375 C 1553.378906 585.449219 1537.769531 596.058594 1537.769531 596.058594 C 1535.128906 598.210938 1531.898438 599.5 1528.511719 599.75 C 1528.511719 599.75 1449.398438 606.230469 1348.609375 613.921875 C 1171.949219 627.398438 928.707031 644.929688 928.707031 644.929688 C 920.042969 645.570312 912.234375 639.71875 910.40625 631.230469 Z M 941.273438 609.070312 C 997.039062 604.851562 1195.609375 589.898438 1346.039062 579.140625 C 1428.949219 573.210938 1497.238281 568.621094 1518.890625 567.179688 C 1521.511719 562.308594 1525.910156 551.230469 1527.96875 529.339844 C 1529.28125 515.441406 1529.601562 497.941406 1527.871094 475.96875 C 1526.769531 461.410156 1517.121094 452.679688 1502.761719 447.210938 C 1488.851562 441.921875 1471.160156 439.359375 1451.210938 438.570312 C 1404.910156 436.730469 1347.191406 443.449219 1295.011719 450.390625 C 1253.488281 455.898438 1215.421875 461.679688 1188.578125 461.390625 C 1130.261719 461.519531 1055.988281 458.421875 1001.648438 465.800781 C 984.550781 468.128906 969.566406 471.558594 957.96875 476.53125 C 949.6875 480.070312 943.371094 484.238281 940.503906 490.140625 C 934.191406 503.140625 932.921875 521.800781 933.308594 540.769531 C 933.835938 566.640625 938.171875 593.140625 941.273438 609.070312 "/>
<path fill-rule="evenodd" fill="rgb(98.631287%, 99.804688%, 100%)" fill-opacity="1" d="M 1115.089844 1059.28125 C 1115.089844 1059.28125 818.054688 876.238281 706.316406 849.949219 C 650.273438 836.761719 688.183594 1554.597656 689.832031 1630.417969 C 691.480469 1706.238281 1073.890625 2036.722656 1126.628906 1954.308594 C 1179.378906 1871.894531 1115.089844 1059.28125 1115.089844 1059.28125 "/>
<path fill-rule="evenodd" fill="rgb(0%, 16.50238%, 25.805664%)" fill-opacity="1" d="M 1132.441406 1057.910156 C 1132.441406 1057.910156 1160.539062 1421.128906 1163.460938 1686.933594 C 1164.429688 1775.964844 1162.570312 1854.160156 1155.960938 1904.515625 C 1152.289062 1932.515625 1146.660156 1952.648438 1140.070312 1962.910156 C 1129.28125 1979.71875 1109.449219 1986.605469 1082.199219 1981.78125 C 1040.839844 1974.464844 978.332031 1938.511719 914.703125 1891.28125 C 835.316406 1832.359375 753.828125 1756.203125 709.6875 1700.386719 C 686.570312 1671.160156 673.882812 1646.117188 673.460938 1630.773438 C 672.875 1609.214844 668.851562 1535.699219 665.234375 1441.835938 C 664.902344 1433.160156 664.507812 1424.316406 664.296875 1415.316406 C 662.570312 1341.078125 663.890625 1256.800781 663.882812 1176.351562 C 663.875 1112.519531 663.417969 1051.128906 665.113281 999.070312 C 667.410156 928.5 673.007812 874.601562 682.75 853.398438 C 689.679688 838.320312 700.140625 834.511719 709.449219 836.628906 C 750.214844 845.890625 815.296875 875.238281 882.058594 909.269531 C 1000.390625 969.589844 1124.21875 1044.46875 1124.21875 1044.46875 C 1128.949219 1047.378906 1132.011719 1052.371094 1132.441406 1057.910156 Z M 707.871094 864.46875 C 706.53125 867.441406 704.316406 872.671875 703.109375 877.371094 C 691.023438 924.378906 686.015625 1034.910156 687.835938 1157.210938 C 689.003906 1235.640625 694.441406 1318.710938 697.980469 1393.359375 C 698.75 1409.546875 699.421875 1425.339844 699.988281 1440.597656 C 703.480469 1534.691406 705.851562 1608.445312 706.207031 1630.0625 C 706.261719 1633.644531 707.90625 1637.992188 710.339844 1643.136719 C 715.355469 1653.753906 723.773438 1666.503906 734.8125 1680.660156 C 777.253906 1735.085938 856.425781 1808.910156 933.421875 1866.0625 C 982.597656 1902.5625 1030.859375 1932.242188 1067.949219 1945.148438 C 1081.121094 1949.730469 1092.589844 1952.203125 1101.839844 1951.335938 C 1106.761719 1950.875 1110.808594 1949.425781 1113.191406 1945.703125 C 1118.238281 1937.785156 1121.390625 1921.972656 1124.148438 1900.390625 C 1130.46875 1851.070312 1131.980469 1774.507812 1130.75 1687.34375 C 1127.351562 1446.75 1102.890625 1126.128906 1098.441406 1069.410156 C 1070.230469 1051.898438 967.300781 988.679688 868.113281 936.089844 C 806.863281 903.621094 747.140625 875.101562 707.871094 864.46875 "/>
<path fill-rule="evenodd" fill="rgb(0%, 67.576599%, 82.421875%)" fill-opacity="1" d="M 1536.550781 567.660156 C 1418.378906 577.398438 920.832031 610.769531 920.832031 610.769531 C 960.921875 782.21875 1107.210938 1064.820312 1107.210938 1064.820312 L 1683.878906 990.5 C 1683.878906 990.5 1717.25 1004.011719 1609.070312 816.878906 C 1560.28125 732.488281 1536.550781 567.660156 1536.550781 567.660156 "/>
<path fill-rule="evenodd" fill="rgb(0%, 16.50238%, 25.805664%)" fill-opacity="1" d="M 1553.769531 565.179688 C 1553.769531 565.179688 1563.890625 641.070312 1585.371094 715.800781 C 1595.128906 749.78125 1607.171875 783.539062 1621.828125 809.511719 C 1676.71875 906.378906 1695.050781 950.910156 1699.988281 971.148438 C 1704.109375 988.070312 1699.96875 995.121094 1697.488281 998.039062 C 1693.28125 1003 1688 1003.851562 1684.160156 1003.628906 C 1676.398438 1004.578125 1636.800781 1009.519531 1581.789062 1017.140625 C 1514.371094 1026.46875 1423.96875 1040.679688 1340.078125 1052.160156 C 1324.421875 1054.308594 1308.96875 1056.28125 1293.949219 1058.109375 C 1191.511719 1070.609375 1109.089844 1079.398438 1109.089844 1079.398438 C 1102.960938 1080.191406 1097 1077.070312 1094.160156 1071.578125 C 1094.160156 1071.578125 1066.878906 1014.820312 1031.070312 937.539062 C 1012.089844 896.558594 990.113281 850.089844 969.964844 802.550781 C 948.46875 751.828125 927.667969 700.429688 914.183594 653.660156 C 910.300781 640.199219 907.335938 627.050781 904.679688 614.550781 C 903.570312 609.808594 904.601562 604.820312 907.496094 600.898438 C 910.394531 596.988281 914.863281 594.539062 919.722656 594.21875 C 919.722656 594.21875 1000.578125 592.808594 1104.761719 586.351562 C 1259.191406 576.78125 1464.628906 557.019531 1535.121094 550.308594 C 1544.289062 549.558594 1552.460938 556.070312 1553.769531 565.179688 Z M 1682.050781 977.558594 C 1682.160156 977.550781 1682.210938 977.539062 1682.210938 977.539062 C 1682.160156 977.550781 1682.109375 977.550781 1682.050781 977.558594 Z M 1675.070312 980.851562 C 1672.238281 983.441406 1670.578125 987.238281 1670.839844 991.328125 C 1671.289062 998.210938 1676.988281 1003.558594 1683.878906 1003.558594 L 1688.480469 978.269531 C 1688.480469 978.269531 1688.121094 978.128906 1687.769531 978.03125 C 1686.921875 977.78125 1685.078125 977.410156 1683.058594 977.859375 C 1681.441406 978.21875 1679.710938 978.941406 1678.171875 980.429688 C 1677.300781 981.269531 1675.621094 984.75 1675.621094 984.75 C 1675.621094 984.75 1675.460938 983.050781 1675.070312 980.851562 Z M 1674.601562 978.558594 C 1674.53125 978.238281 1674.449219 977.929688 1674.371094 977.609375 C 1669.339844 958.289062 1650.53125 916.179688 1596.320312 824.25 C 1580.058594 796.789062 1566.28125 760.988281 1555.078125 724.839844 C 1537.839844 669.179688 1526.78125 612.75 1522.011719 586.039062 C 1439.878906 591.109375 1250.511719 599.441406 1106.390625 610.171875 C 1033.308594 615.609375 971.949219 621.871094 941.859375 625.109375 C 944.460938 634.21875 947.308594 643.601562 950.207031 653.230469 C 967.488281 710.671875 990.703125 775.980469 1015.699219 836.761719 C 1028.730469 868.449219 1041.71875 899.101562 1054.488281 926.710938 C 1081.28125 984.660156 1105.148438 1030.058594 1115.210938 1048.769531 C 1139.929688 1045.078125 1208.328125 1034.988281 1289.550781 1023.96875 C 1304.539062 1021.929688 1319.980469 1019.921875 1335.679688 1018.019531 C 1419.738281 1007.859375 1510.789062 998.691406 1578.371094 990.621094 C 1624.558594 985.101562 1659.820312 980.511719 1674.601562 978.558594 "/>
<path fill-rule="evenodd" fill="rgb(0%, 34.104919%, 51.756287%)" fill-opacity="1" d="M 1224.339844 739.671875 C 1224.339844 739.671875 1174.46875 749.878906 1201.429688 795.851562 C 1228.398438 841.828125 1362.230469 931.699219 1436.839844 843.558594 C 1458.300781 818.199219 1430.648438 776.199219 1418.53125 781.011719 C 1406.421875 785.828125 1224.339844 739.671875 1224.339844 739.671875 "/>
<path fill-rule="evenodd" fill="rgb(0%, 16.50238%, 25.805664%)" fill-opacity="1" d="M 1415.671875 767.988281 C 1420.03125 766.859375 1424.988281 767.140625 1430.121094 769.699219 C 1437.28125 773.269531 1446.078125 782.480469 1451.46875 794.839844 C 1459.011719 812.140625 1460.46875 834.628906 1445.890625 851.21875 C 1414.96875 886.488281 1375.839844 895.28125 1337.050781 889.421875 C 1297.050781 883.390625 1257.878906 861.121094 1229.53125 838.519531 C 1212.910156 825.261719 1199.839844 811.960938 1192.941406 800.839844 C 1179.648438 781.859375 1180.238281 766.941406 1183.621094 755.738281 C 1190.878906 731.679688 1220.851562 722.621094 1220.851562 722.621094 C 1223.421875 722.089844 1226.078125 722.148438 1228.621094 722.800781 C 1228.621094 722.800781 1290.03125 739.761719 1343.628906 752.949219 C 1367.789062 758.898438 1390.328125 764.101562 1404.761719 766.570312 C 1409.378906 767.359375 1414.570312 767.878906 1415.671875 767.988281 Z M 1419.03125 794.46875 C 1417.648438 794.660156 1416.03125 794.761719 1414.179688 794.738281 C 1407.308594 794.671875 1393.640625 792.730469 1376.5 789.679688 C 1324.398438 780.421875 1238.378906 760.75 1222.589844 757.121094 C 1219.929688 757.570312 1216.621094 758.5 1213.570312 760.398438 C 1211.328125 761.800781 1208.691406 763.03125 1207.308594 765.609375 C 1204.261719 771.289062 1204.371094 779.371094 1209.929688 790.871094 C 1215.460938 800.859375 1226.019531 813.359375 1240.359375 825.121094 C 1266.039062 846.171875 1302.96875 865.238281 1339.730469 869.699219 C 1371.570312 873.570312 1403.519531 865.589844 1427.78125 835.890625 C 1432.480469 830.140625 1433.050781 823.109375 1431.988281 816.558594 C 1430.921875 810.03125 1427.980469 803.890625 1424.609375 799.210938 C 1422.988281 796.949219 1419.691406 795.890625 1419.03125 794.46875 "/>
<path fill-rule="evenodd" fill="rgb(0%, 34.104919%, 51.756287%)" fill-opacity="1" d="M 1235.191406 693.890625 C 1235.191406 693.890625 1212.621094 775.53125 1222.121094 785.488281 C 1231.621094 795.449219 1308.878906 889.210938 1408.699219 831.308594 C 1418.53125 825.609375 1419.859375 750.628906 1419.859375 750.628906 L 1235.191406 693.890625 "/>
<path fill-rule="evenodd" fill="rgb(0%, 16.50238%, 25.805664%)" fill-opacity="1" d="M 1240.300781 677.25 L 1423.941406 737.339844 C 1429.871094 739.160156 1433.871094 744.679688 1433.761719 750.878906 C 1433.761719 750.878906 1432.28125 794.441406 1427.230469 818.691406 C 1425.761719 825.761719 1423.890625 831.480469 1421.898438 834.960938 C 1419.820312 838.578125 1417.359375 840.910156 1415.03125 842.21875 C 1373.398438 865.550781 1335.738281 865.089844 1304.28125 855.230469 C 1254.488281 839.609375 1220.539062 799.449219 1214.339844 792.910156 C 1210.710938 789.390625 1208.25 779.558594 1208.691406 766.261719 C 1209 757.160156 1210.308594 746.039062 1211.691406 734.980469 C 1214.578125 711.710938 1218.410156 689.25 1218.410156 689.25 C 1219.660156 684.71875 1222.699219 680.890625 1226.820312 678.621094 C 1230.941406 676.359375 1235.808594 675.871094 1240.300781 677.25 Z M 1231.050781 779.320312 C 1238.890625 787.921875 1268.21875 821.550781 1310.71875 834.058594 C 1336.410156 841.621094 1366.960938 840.851562 1400.078125 821.761719 C 1400.230469 821.339844 1400.390625 820.859375 1400.511719 820.46875 C 1404.519531 806.871094 1405.578125 777.089844 1405.859375 761.070312 L 1245.851562 715.058594 C 1243.171875 722.738281 1240.019531 732.300781 1237.328125 742.019531 C 1234.308594 752.960938 1231.808594 763.980469 1231.101562 772.328125 C 1230.871094 774.910156 1231.011719 778.308594 1231.050781 779.320312 "/>
<path fill-rule="evenodd" fill="rgb(0%, 16.50238%, 25.805664%)" fill-opacity="1" d="M 1259.628906 747.019531 C 1260.828125 741.28125 1266.46875 737.601562 1272.210938 738.800781 C 1277.941406 740 1281.628906 745.640625 1280.429688 751.371094 L 1266.179688 819.378906 C 1264.980469 825.121094 1259.339844 828.808594 1253.601562 827.601562 C 1247.859375 826.398438 1244.179688 820.769531 1245.378906 815.03125 L 1259.628906 747.019531 "/>
<path fill-rule="evenodd" fill="rgb(0%, 16.50238%, 25.805664%)" fill-opacity="1" d="M 1309.28125 772.691406 C 1310.019531 766.871094 1315.339844 762.75 1321.160156 763.488281 C 1326.980469 764.230469 1331.101562 769.550781 1330.359375 775.359375 L 1321.289062 846.921875 C 1320.550781 852.738281 1315.230469 856.859375 1309.410156 856.121094 C 1303.589844 855.390625 1299.46875 850.058594 1300.210938 844.25 L 1309.28125 772.691406 "/>
<path fill-rule="evenodd" fill="rgb(0%, 16.50238%, 25.805664%)" fill-opacity="1" d="M 1364.449219 785.539062 C 1364.421875 779.679688 1369.160156 774.890625 1375.019531 774.859375 C 1380.890625 774.828125 1385.671875 779.570312 1385.699219 785.429688 L 1386.011719 845.53125 C 1386.039062 851.390625 1381.308594 856.179688 1375.441406 856.210938 C 1369.578125 856.238281 1364.800781 851.5 1364.769531 845.640625 L 1364.449219 785.539062 "/>
<path fill-rule="evenodd" fill="rgb(98.631287%, 99.804688%, 100%)" fill-opacity="1" d="M 1703.539062 1825.742188 C 1654.601562 1866.40625 1105.199219 1968.316406 1105.199219 1968.316406 C 1105.199219 1968.316406 1096.960938 1210.78125 1096.960938 1057.628906 C 1096.960938 1026.320312 1688.699219 980.160156 1688.699219 980.160156 C 1688.699219 980.160156 1748.851562 1788.078125 1703.539062 1825.742188 "/>
<path fill-rule="evenodd" fill="rgb(0%, 16.50238%, 25.805664%)" fill-opacity="1" d="M 1711.511719 1835.339844 C 1694.941406 1849.503906 1621.808594 1872.355469 1531.070312 1895.144531 C 1464.871094 1911.769531 1389.25 1929.054688 1320.339844 1943.578125 C 1204.808594 1967.933594 1108.328125 1985.195312 1108.328125 1985.195312 C 1103.351562 1986.121094 1098.210938 1984.796875 1094.300781 1981.578125 C 1090.390625 1978.355469 1088.089844 1973.574219 1088.039062 1968.503906 C 1088.039062 1968.503906 1086.039062 1679.238281 1084.589844 1422.054688 C 1083.691406 1262.980469 1082.988281 1116.171875 1083.199219 1057.628906 C 1083.210938 1052.359375 1087.230469 1043.410156 1100.769531 1037.839844 C 1118.070312 1030.71875 1158.050781 1023.140625 1209.628906 1015.511719 C 1381.980469 990.039062 1687.421875 963.710938 1687.421875 963.710938 C 1691.789062 963.371094 1696.121094 964.789062 1699.449219 967.640625 C 1702.78125 970.5 1704.828125 974.570312 1705.160156 978.941406 C 1705.160156 978.941406 1713.820312 1082 1721.359375 1216.339844 C 1727.589844 1327.488281 1732.761719 1460.042969 1734.199219 1573.195312 C 1735.519531 1676.464844 1733.089844 1763.714844 1724.898438 1804.691406 C 1721.628906 1821.050781 1716.410156 1831.300781 1711.511719 1835.339844 Z M 1110.738281 1063.679688 C 1110.96875 1113.25 1112.050781 1213.910156 1113.511719 1330.710938 C 1116.460938 1566.140625 1120.871094 1867.09375 1122.058594 1947.582031 C 1156.039062 1941.003906 1229.589844 1926.6875 1313.421875 1909.898438 C 1382.148438 1896.132812 1457.839844 1880.953125 1524.109375 1865.972656 C 1582.429688 1852.792969 1633.429688 1840.09375 1665.808594 1829.09375 C 1679.898438 1824.304688 1690.179688 1820.265625 1695.171875 1816.445312 C 1693.800781 1815.15625 1697.269531 1812.300781 1698.238281 1808.824219 C 1700.449219 1800.855469 1702.039062 1789.65625 1703.320312 1775.800781 C 1707.511719 1730.246094 1707.261719 1657.351562 1704.828125 1573.808594 C 1701.550781 1461.066406 1693.648438 1329.101562 1686.980469 1218.339844 C 1680.828125 1116.109375 1675.488281 1031.949219 1673.300781 997.789062 C 1623.070312 1001.390625 1468.339844 1012.921875 1332.121094 1027.78125 C 1240.878906 1037.730469 1158.03125 1049.230469 1121.179688 1059.878906 C 1117.421875 1060.96875 1113.410156 1062.558594 1110.738281 1063.679688 "/>
<path fill-rule="evenodd" fill="rgb(0%, 16.50238%, 25.805664%)" fill-opacity="1" d="M 664.253906 1411.035156 C 662.902344 1401.523438 669.527344 1392.710938 679.039062 1391.359375 C 688.546875 1390.011719 697.363281 1396.628906 698.714844 1406.140625 C 698.714844 1406.140625 702.273438 1430.679688 716.738281 1454.023438 C 725.753906 1468.578125 739.148438 1482.851562 759.363281 1489.246094 C 782.691406 1496.628906 814.050781 1493.480469 856.539062 1472.472656 C 912.9375 1444.589844 947.160156 1446.113281 967.953125 1458.902344 C 989.574219 1472.203125 999.589844 1499.703125 1004.230469 1531.164062 C 1007.230469 1551.542969 1008.410156 1573.503906 1011.960938 1592.035156 C 1013.820312 1601.710938 1016.101562 1610.335938 1020.558594 1616.46875 C 1032.808594 1633.316406 1056.601562 1662.988281 1086.390625 1684.511719 C 1104.589844 1697.660156 1125.050781 1707.921875 1146.539062 1708.820312 C 1183.128906 1710.351562 1219.890625 1683.929688 1254.160156 1607.851562 C 1275.238281 1561.046875 1298.761719 1545.542969 1318.761719 1544.5625 C 1339.308594 1543.554688 1360.519531 1558.1875 1379.46875 1581.210938 C 1397.378906 1602.976562 1414.28125 1631.820312 1429.761719 1652.117188 C 1434.109375 1657.816406 1438.28125 1662.761719 1442.359375 1666.367188 C 1444.148438 1667.949219 1445.519531 1669.546875 1447.191406 1669.78125 C 1460.730469 1671.691406 1474.160156 1665.71875 1487.238281 1655.488281 C 1511.351562 1636.644531 1533.441406 1603.625 1551.039062 1565.410156 C 1559.289062 1547.492188 1570.53125 1536.203125 1583.078125 1529.742188 C 1601.699219 1520.160156 1624.050781 1521.011719 1646.898438 1530.367188 C 1679.109375 1543.554688 1712.769531 1574.089844 1734.898438 1607.113281 C 1740.238281 1615.097656 1738.109375 1625.914062 1730.128906 1631.261719 C 1722.140625 1636.605469 1711.328125 1634.46875 1705.980469 1626.488281 C 1687.699219 1599.203125 1660.320312 1573.476562 1633.710938 1562.582031 C 1621.269531 1557.484375 1609.148438 1555.472656 1599.011719 1560.691406 C 1592.390625 1564.101562 1587.011719 1570.523438 1582.660156 1579.972656 C 1562.449219 1623.855469 1536.371094 1661.269531 1508.679688 1682.910156 C 1487.230469 1699.675781 1464.53125 1707.382812 1442.328125 1704.25 C 1432.539062 1702.871094 1421.339844 1695.816406 1410.460938 1683.488281 C 1392.960938 1663.675781 1373.460938 1628.691406 1352.589844 1603.332031 C 1346.28125 1595.660156 1339.898438 1588.941406 1333.300781 1584.3125 C 1329.039062 1581.328125 1324.890625 1579.113281 1320.46875 1579.328125 C 1316.128906 1579.542969 1312.070312 1582.265625 1307.601562 1586.839844 C 1300.378906 1594.226562 1293.28125 1605.757812 1285.898438 1622.148438 C 1242.710938 1718.015625 1191.191406 1745.527344 1145.078125 1743.597656 C 1116.960938 1742.421875 1089.820312 1729.933594 1066.011719 1712.726562 C 1032.769531 1688.710938 1006.078125 1655.738281 992.40625 1636.941406 C 985.34375 1627.226562 980.714844 1613.925781 977.773438 1598.59375 C 974.132812 1579.609375 972.871094 1557.117188 969.792969 1536.242188 C 968.117188 1524.875 965.925781 1514.027344 962.085938 1504.851562 C 959.222656 1498.007812 955.539062 1492.136719 949.714844 1488.550781 C 943.671875 1484.832031 935.65625 1483.8125 925.140625 1485.164062 C 911.144531 1486.960938 893.777344 1492.894531 871.96875 1503.675781 C 818.3125 1530.203125 778.320312 1531.753906 748.863281 1522.433594 C 719.808594 1513.238281 700.105469 1493.273438 687.148438 1472.355469 C 668.644531 1442.488281 664.253906 1411.035156 664.253906 1411.035156 "/>
<path fill-rule="evenodd" fill="rgb(0%, 67.576599%, 82.421875%)" fill-opacity="1" d="M 1102.988281 1051.898438 C 1165.261719 1020.988281 1688.699219 980.160156 1688.699219 980.160156 C 1688.699219 980.160156 1717.398438 1365.640625 1720.21875 1616.472656 C 1679.738281 1556.300781 1598.300781 1504.402344 1566.851562 1572.691406 C 1535.339844 1641.105469 1489.441406 1693.316406 1444.761719 1687.015625 C 1400.078125 1680.714844 1337.75 1464.671875 1270.03125 1615 C 1231.800781 1699.851562 1188.289062 1727.238281 1147.410156 1726.261719 C 1131.929688 1725.894531 1116.828125 1721.460938 1102.539062 1714.539062 C 1100.128906 1479.546875 1096.960938 1152.539062 1096.960938 1057.628906 C 1096.960938 1055.769531 1099.058594 1053.859375 1102.988281 1051.898438 "/>
<path fill-rule="evenodd" fill="rgb(0%, 16.50238%, 25.805664%)" fill-opacity="1" d="M 1095.261719 1036.308594 C 1116.421875 1026.300781 1188.121094 1015.5 1275.308594 1006.25 C 1368.859375 996.328125 1480.589844 987.699219 1564.21875 981.269531 C 1582.179688 979.890625 1598.851562 978.679688 1613.738281 977.351562 C 1658.960938 973.320312 1687.921875 970.109375 1687.921875 970.109375 C 1690.589844 969.898438 1693.238281 970.761719 1695.269531 972.511719 C 1697.308594 974.261719 1698.558594 976.738281 1698.761719 979.410156 C 1698.761719 979.410156 1715.78125 1125.75 1725.988281 1297.199219 C 1732.339844 1403.769531 1734.46875 1519.996094 1734.660156 1616.308594 C 1734.738281 1622.695312 1730.609375 1628.371094 1724.511719 1630.265625 C 1718.410156 1632.164062 1711.789062 1629.835938 1708.230469 1624.535156 C 1688.011719 1593.769531 1656.671875 1564.71875 1627.320312 1555.867188 C 1607.601562 1549.921875 1589.199219 1554.757812 1578.300781 1577.964844 C 1561.019531 1615.21875 1539.5 1647.726562 1516.441406 1669.507812 C 1493.050781 1691.597656 1467.71875 1702.773438 1443.019531 1699.328125 C 1437.128906 1698.507812 1430.878906 1695.5625 1424.589844 1690.441406 C 1417.128906 1684.371094 1409.21875 1674.871094 1401.050781 1663.59375 C 1381.550781 1636.664062 1360.191406 1598.410156 1337.109375 1581.433594 C 1330.898438 1576.867188 1324.738281 1573.898438 1318.28125 1575.097656 C 1312.839844 1576.109375 1307.621094 1579.945312 1302.050781 1586.421875 C 1295.398438 1594.140625 1288.808594 1605.285156 1282.058594 1620.421875 C 1262.589844 1664.140625 1241.488281 1693.304688 1220.230469 1711.792969 C 1195.960938 1732.898438 1171.078125 1740.679688 1147.070312 1740.207031 C 1138.148438 1740.035156 1129.328125 1738.675781 1120.679688 1736.371094 C 1112.390625 1734.164062 1104.269531 1731.0625 1096.371094 1727.277344 C 1091.53125 1724.9375 1088.441406 1720.058594 1088.378906 1714.6875 C 1086.210938 1571.109375 1083.601562 1393.199219 1081.769531 1254.851562 C 1080.601562 1166.691406 1079.75 1094.589844 1079.558594 1057.628906 C 1079.558594 1054.050781 1080.46875 1050.359375 1082.761719 1046.730469 C 1084.761719 1043.539062 1088.628906 1039.601562 1095.261719 1036.308594 Z M 1114.328125 1065.820312 C 1114.160156 1114.578125 1114.359375 1209.570312 1114.789062 1320.261719 C 1115.25 1443.195312 1115.988281 1585.488281 1116.640625 1705.359375 C 1120.378906 1706.878906 1124.179688 1708.1875 1128.03125 1709.25 C 1134.480469 1711.03125 1141.070312 1712.128906 1147.738281 1712.316406 C 1165.671875 1712.820312 1184.140625 1706.730469 1202.410156 1691.117188 C 1221.570312 1674.742188 1240.238281 1648.535156 1257.988281 1609.578125 C 1278.890625 1563.640625 1301.5 1548.855469 1321.128906 1548.988281 C 1332.109375 1549.0625 1343.070312 1553.566406 1353.601562 1561.707031 C 1368.609375 1573.308594 1383.199219 1592.734375 1396.890625 1612.890625 C 1409.488281 1631.425781 1421.371094 1650.535156 1432.511719 1663.320312 C 1437.640625 1669.214844 1441.871094 1674.046875 1446.488281 1674.703125 C 1464.511719 1677.277344 1482.460938 1667.738281 1499.511719 1651.601562 C 1520.578125 1631.65625 1539.78125 1601.574219 1555.398438 1567.421875 C 1563.46875 1549.550781 1574.699219 1538.625 1587.320312 1532.695312 C 1601.449219 1526.054688 1617.730469 1525.761719 1634.699219 1530.542969 C 1658.171875 1537.15625 1683.261719 1554.125 1704.640625 1575.445312 C 1703.75 1547.8125 1702.601562 1519.007812 1701.28125 1489.621094 C 1699.171875 1442.832031 1696.328125 1394.609375 1693.839844 1347.328125 C 1692.75 1326.738281 1691.671875 1306.339844 1690.851562 1286.308594 C 1685.140625 1146.511719 1680.378906 1025.328125 1679.03125 990.769531 C 1668.289062 991.371094 1649.800781 992.511719 1625.859375 994.390625 C 1613.160156 995.390625 1598.929688 996.710938 1583.511719 998.210938 C 1514.878906 1004.890625 1422.710938 1015.160156 1337.179688 1026.238281 C 1235.398438 1039.429688 1143.269531 1053.671875 1114.328125 1065.820312 Z M 1114.371094 1057.660156 C 1114.371094 1057.648438 1114.371094 1057.640625 1114.371094 1057.628906 C 1114.371094 1057.640625 1114.371094 1057.648438 1114.371094 1057.660156 "/>
<path fill-rule="evenodd" fill="rgb(0%, 67.576599%, 82.421875%)" fill-opacity="1" d="M 1102.988281 1051.898438 C 1099.058594 1053.859375 1096.960938 1055.769531 1096.960938 1057.628906 C 1096.960938 1152.539062 1100.128906 1479.546875 1102.539062 1714.539062 C 1058.96875 1693.449219 1022.890625 1649.265625 1006.480469 1626.703125 C 970.476562 1577.191406 1024.488281 1408.859375 864.253906 1488.074219 C 704.019531 1567.289062 681.484375 1408.585938 681.484375 1408.585938 C 673.59375 1173.03125 668.035156 840.941406 706.316406 849.949219 C 804.589844 873.070312 1046.191406 1017.441406 1102.988281 1051.898438 "/>
<path fill-rule="evenodd" fill="rgb(0%, 16.50238%, 25.805664%)" fill-opacity="1" d="M 1114.078125 1065.320312 C 1113.179688 1123.289062 1111.871094 1247.589844 1111.058594 1385.980469 C 1110.738281 1439.640625 1110.460938 1495.390625 1110.421875 1550.222656 C 1110.390625 1607.113281 1110.691406 1662.988281 1110.828125 1714.457031 C 1110.859375 1717.328125 1109.410156 1720.011719 1106.980469 1721.550781 C 1104.550781 1723.089844 1101.5 1723.261719 1098.921875 1722.011719 C 1082.691406 1714.121094 1067.480469 1703.148438 1053.820312 1691.273438 C 1029.699219 1670.320312 1010.46875 1646.480469 999.636719 1631.683594 C 986.734375 1614.183594 983.949219 1582.550781 980.195312 1551.324219 C 976.980469 1524.578125 973.4375 1497.953125 957.453125 1484.691406 C 941.996094 1471.867188 915.941406 1473.984375 869.058594 1497.792969 C 813.214844 1526.199219 772.570312 1526.3125 743.332031 1514.949219 C 680.710938 1490.609375 668.011719 1410.5 668.011719 1410.5 C 667.941406 1410.019531 667.898438 1409.53125 667.882812 1409.042969 C 665.679688 1352.101562 662.632812 1289.539062 662.214844 1227.480469 C 661.6875 1149.839844 665 1073.140625 668.339844 1009.261719 C 669.359375 989.75 670.558594 971.449219 671.667969 954.660156 C 675.140625 902.109375 680.492188 864.101562 689.238281 850.140625 C 694.671875 841.46875 701.613281 839.089844 708.511719 840.621094 C 748.132812 849.25 810.835938 876.769531 875.804688 908.949219 C 973.914062 957.539062 1077.191406 1016.75 1112.019531 1037.019531 C 1117.449219 1040.308594 1120.648438 1046.300781 1120.378906 1052.640625 C 1120.171875 1057.628906 1117.839844 1062.210938 1114.078125 1065.320312 Z M 1079.71875 1057.820312 C 1037.089844 1031.109375 948.917969 976.820312 864.304688 931.191406 C 803.167969 898.230469 744 869.738281 705.734375 859.699219 C 705.023438 860.671875 703.839844 862.390625 703.105469 864.011719 C 701.386719 867.800781 699.800781 872.679688 698.347656 878.558594 C 693.78125 897.011719 690.007812 924.390625 687.960938 957.980469 C 686.945312 974.628906 686.519531 992.800781 686.3125 1012.109375 C 685.6875 1070.601562 688.527344 1139.550781 690.820312 1210.019531 C 691.246094 1223.191406 691.585938 1236.410156 691.855469 1249.621094 C 692.976562 1303.769531 693.746094 1357.761719 695.070312 1407.492188 C 696.171875 1415.058594 706.046875 1473 752.445312 1492.269531 C 777.082031 1502.5 811.425781 1501.421875 859.449219 1478.355469 C 918.242188 1450.066406 951.148438 1453.570312 970.003906 1469.863281 C 985.699219 1483.425781 992.589844 1507.121094 996.160156 1533.324219 C 1000.621094 1566.050781 999.796875 1602.847656 1013.328125 1621.722656 C 1022.121094 1633.910156 1036.671875 1652.59375 1055.171875 1670.289062 C 1066.730469 1681.347656 1079.839844 1692.019531 1093.980469 1700.484375 C 1092.929688 1642.96875 1091.96875 1580.484375 1090.589844 1517.566406 C 1086.378906 1324.828125 1080.839844 1128.140625 1079.71875 1057.820312 "/>
<path fill-rule="evenodd" fill="rgb(0%, 34.008789%, 51.756287%)" fill-opacity="1" d="M 1284.75 661.21875 C 1264.449219 665.28125 1236.621094 675.519531 1234.890625 696.160156 C 1232.949219 718.671875 1260.050781 755.289062 1327.011719 776.410156 C 1452.761719 816.070312 1425.070312 714.449219 1391.988281 690.328125 C 1347.289062 657.71875 1307.648438 656.710938 1284.75 661.21875 "/>
<path fill-rule="evenodd" fill="rgb(0%, 16.50238%, 25.805664%)" fill-opacity="1" d="M 1282.820312 651.441406 C 1297.660156 648.308594 1319.019531 647.25 1344.289062 654.320312 C 1360.980469 659 1379.390625 667.308594 1398.761719 681.050781 C 1412.789062 691.019531 1426.320312 712.691406 1430.691406 734.328125 C 1434.011719 750.789062 1431.851562 767.050781 1422.789062 779.039062 C 1409.929688 796.078125 1380.28125 806.660156 1322.988281 789.160156 C 1289.96875 778.609375 1265.960938 764.589844 1250.070312 750.019531 C 1228.878906 730.578125 1221.351562 709.929688 1222.929688 695.148438 C 1224.320312 682.96875 1231.398438 673.078125 1242.191406 665.96875 C 1253.871094 658.269531 1269.699219 653.621094 1282.789062 651.441406 Z M 1286.691406 671.011719 C 1278.011719 673.039062 1267.878906 676.441406 1259.5 681.398438 C 1252.890625 685.320312 1247.21875 690.140625 1246.839844 697.160156 L 1246.839844 697.179688 C 1246.230469 706.691406 1253.660156 718.390625 1267.539062 730.5 C 1281.601562 742.769531 1302.390625 754.730469 1331.039062 763.648438 C 1351.519531 770.289062 1367.53125 772.960938 1379.890625 772.460938 C 1391.058594 772 1398.628906 769.171875 1402.929688 763.730469 C 1408.089844 757.179688 1408.480469 748.019531 1406.851562 738.859375 C 1404.058594 723.179688 1395.171875 707.039062 1385.230469 699.609375 C 1368.601562 687.140625 1352.71875 679.390625 1338.230469 674.921875 C 1317.179688 668.410156 1299.230469 668.710938 1286.691406 671.011719 "/>
<path fill-rule="evenodd" fill="rgb(98.826599%, 100%, 100%)" fill-opacity="1" d="M 1212.148438 1375.628906 C 1209.78125 1375.941406 1207.390625 1375.230469 1205.589844 1373.660156 C 1203.78125 1372.101562 1202.730469 1369.828125 1202.710938 1367.441406 C 1202.148438 1313.21875 1201.589844 1259 1201.039062 1204.769531 C 1200.988281 1200.519531 1204.148438 1196.921875 1208.371094 1196.410156 C 1217.648438 1195.269531 1226.929688 1194.140625 1236.210938 1193 C 1240.460938 1192.488281 1244.421875 1195.269531 1245.359375 1199.449219 C 1249.339844 1217.050781 1253.328125 1234.648438 1257.320312 1252.238281 C 1258.199219 1256.128906 1261.699219 1258.851562 1265.679688 1258.738281 C 1269.671875 1258.640625 1273.019531 1255.730469 1273.691406 1251.800781 C 1277.019531 1232.269531 1280.359375 1212.738281 1283.691406 1193.210938 C 1284.308594 1189.570312 1287.238281 1186.769531 1290.898438 1186.320312 C 1299.511719 1185.269531 1308.128906 1184.21875 1316.738281 1183.171875 C 1319.039062 1182.890625 1321.351562 1183.578125 1323.121094 1185.070312 C 1324.890625 1186.558594 1325.96875 1188.71875 1326.078125 1191.03125 C 1328.800781 1244.578125 1331.53125 1298.121094 1334.261719 1351.660156 C 1334.480469 1356 1331.328125 1359.789062 1327.019531 1360.359375 C 1323.109375 1360.878906 1319.191406 1361.398438 1315.28125 1361.921875 C 1312.980469 1362.21875 1310.660156 1361.558594 1308.871094 1360.089844 C 1307.078125 1358.609375 1305.988281 1356.460938 1305.851562 1354.148438 C 1305.308594 1345.320312 1304.78125 1336.480469 1304.238281 1327.648438 C 1303.988281 1323.371094 1300.53125 1319.980469 1296.25 1319.808594 C 1291.96875 1319.640625 1288.25 1322.738281 1287.648438 1326.980469 C 1286.089844 1338.011719 1284.53125 1349.039062 1282.96875 1360.058594 C 1282.449219 1363.769531 1279.519531 1366.671875 1275.808594 1367.171875 C 1272.011719 1367.671875 1268.21875 1368.171875 1264.421875 1368.679688 C 1260.128906 1369.25 1256.109375 1366.441406 1255.179688 1362.210938 C 1252.769531 1351.359375 1250.371094 1340.511719 1247.96875 1329.660156 C 1247.050781 1325.5 1243.128906 1322.691406 1238.890625 1323.171875 C 1234.640625 1323.648438 1231.449219 1327.25 1231.480469 1331.519531 C 1231.550781 1342.898438 1231.628906 1354.28125 1231.699219 1365.660156 C 1231.730469 1369.871094 1228.628906 1373.441406 1224.460938 1373.988281 C 1220.359375 1374.539062 1216.261719 1375.078125 1212.148438 1375.628906 Z M 1369.96875 1354.648438 C 1367.640625 1354.960938 1365.28125 1354.269531 1363.480469 1352.75 C 1361.691406 1351.230469 1360.609375 1349.019531 1360.53125 1346.671875 C 1358.679688 1293.171875 1356.839844 1239.679688 1354.988281 1186.179688 C 1354.839844 1181.851562 1358.03125 1178.128906 1362.320312 1177.609375 C 1369.898438 1176.679688 1377.480469 1175.761719 1385.050781 1174.828125 C 1387.371094 1174.550781 1389.699219 1175.25 1391.480469 1176.769531 C 1393.261719 1178.289062 1394.320312 1180.480469 1394.398438 1182.820312 C 1396.339844 1236.21875 1398.269531 1289.621094 1400.210938 1343.019531 C 1400.371094 1347.320312 1397.230469 1351.03125 1392.96875 1351.601562 C 1385.300781 1352.621094 1377.640625 1353.628906 1369.96875 1354.648438 Z M 1436.300781 1345.851562 C 1433.96875 1346.160156 1431.609375 1345.46875 1429.820312 1343.949219 C 1428.019531 1342.441406 1426.949219 1340.230469 1426.859375 1337.878906 C 1424.859375 1284.640625 1422.871094 1231.410156 1420.878906 1178.171875 C 1420.71875 1173.828125 1423.910156 1170.089844 1428.21875 1169.570312 C 1435.71875 1168.660156 1443.230469 1167.738281 1450.730469 1166.820312 C 1453.050781 1166.539062 1455.378906 1167.238281 1457.160156 1168.75 C 1458.929688 1170.269531 1459.988281 1172.449219 1460.078125 1174.78125 C 1461.800781 1218.609375 1463.511719 1262.441406 1465.230469 1306.269531 C 1465.320312 1308.609375 1466.390625 1310.808594 1468.191406 1312.320312 C 1469.980469 1313.828125 1472.328125 1314.519531 1474.648438 1314.21875 C 1482.210938 1313.230469 1489.761719 1312.238281 1497.308594 1311.25 C 1499.628906 1310.941406 1501.980469 1311.628906 1503.769531 1313.140625 C 1505.558594 1314.648438 1506.640625 1316.839844 1506.738281 1319.179688 C 1506.871094 1322.378906 1507 1325.589844 1507.128906 1328.789062 C 1507.308594 1333.101562 1504.171875 1336.839844 1499.890625 1337.410156 C 1478.691406 1340.21875 1457.488281 1343.03125 1436.300781 1345.851562 Z M 1533.570312 1332.941406 C 1531.25 1333.238281 1528.898438 1332.558594 1527.109375 1331.050781 C 1525.308594 1329.550781 1524.238281 1327.351562 1524.140625 1325.011719 C 1521.929688 1272.148438 1519.730469 1219.289062 1517.53125 1166.421875 C 1517.351562 1162.070312 1520.539062 1158.320312 1524.859375 1157.789062 C 1532.269531 1156.890625 1539.671875 1155.988281 1547.070312 1155.078125 C 1549.378906 1154.800781 1551.699219 1155.5 1553.480469 1157 C 1555.25 1158.511719 1556.320312 1160.679688 1556.421875 1163.011719 C 1556.699219 1169.371094 1556.96875 1175.730469 1557.25 1182.089844 C 1557.421875 1186.089844 1560.398438 1189.398438 1564.359375 1189.988281 C 1568.320312 1190.570312 1572.128906 1188.269531 1573.460938 1184.5 C 1576.878906 1174.769531 1580.300781 1165.039062 1583.71875 1155.300781 C 1584.769531 1152.308594 1587.429688 1150.171875 1590.589844 1149.789062 C 1597.011719 1149 1603.441406 1148.21875 1609.871094 1147.441406 C 1612.730469 1147.089844 1615.570312 1148.238281 1617.378906 1150.488281 C 1619.191406 1152.730469 1619.710938 1155.75 1618.761719 1158.46875 C 1610.980469 1180.78125 1603.199219 1203.089844 1595.421875 1225.390625 C 1594.738281 1227.339844 1594.808594 1229.46875 1595.601562 1231.371094 C 1606.558594 1257.488281 1617.53125 1283.601562 1628.511719 1309.710938 C 1629.519531 1312.109375 1629.359375 1314.839844 1628.058594 1317.101562 C 1626.769531 1319.359375 1624.5 1320.878906 1621.921875 1321.21875 C 1614.519531 1322.199219 1607.128906 1323.179688 1599.730469 1324.160156 C 1595.921875 1324.671875 1592.25 1322.5 1590.859375 1318.921875 C 1582.898438 1298.5 1574.949219 1278.078125 1567.011719 1257.660156 C 1566.550781 1256.460938 1565.421875 1255.648438 1564.140625 1255.578125 C 1562.851562 1255.511719 1561.648438 1256.199219 1561.058594 1257.351562 C 1560.941406 1257.578125 1560.820312 1257.808594 1560.699219 1258.039062 C 1560.601562 1258.230469 1560.558594 1258.441406 1560.558594 1258.660156 C 1561.46875 1279.539062 1562.378906 1300.429688 1563.28125 1321.320312 C 1563.46875 1325.640625 1560.328125 1329.390625 1556.039062 1329.960938 C 1548.550781 1330.949219 1541.058594 1331.941406 1533.570312 1332.941406 "/>
</svg>
